<?xml version="1.0" encoding="utf-8"?><!-- Uploaded to: SVG Repo, www.svgrepo.com, Generator: SVG Repo Mixer Tools -->
<svg fill="none" width="100%" height="100%" viewBox="0 0 90 90" xmlns="http://www.w3.org/2000/svg">
    <g
            transform="translate(0.000000,90.000000) scale(0.100000,-0.100000)"
            fill="currentColor"
            stroke="none"
    >
        <path
                d="M192 708 c-17 -17 -17 -499 0 -516 17 -17 44 -15 62 4 14 13 16 51
16 258 0 254 -2 266 -45 266 -12 0 -26 -5 -33 -12z"
        />
        <path
                d="M505 594 c-117 -86 -170 -131 -170 -144 0 -24 338 -273 363 -268 15
3 17 28 17 268 0 258 -1 265 -20 267 -12 1 -88 -48 -190 -123z"
        />
    </g>
</svg>