<?xml version="1.0" encoding="iso-8859-1"?>
<!-- Uploaded to: SVG Repo, www.svgrepo.com, Generator: SVG Repo Mixer Tools -->
<!DOCTYPE svg PUBLIC "-//W3C//DTD SVG 1.1//EN" "http://www.w3.org/Graphics/SVG/1.1/DTD/svg11.dtd">
<svg fill="currentColor" version="1.1" id="Capa_1" xmlns="http://www.w3.org/2000/svg"
     xmlns:xlink="http://www.w3.org/1999/xlink"
     width="100%" height="100%" viewBox="0 0 861.143 861.143"
     xml:space="preserve">
<g>
	<path d="M808.643,92.067c-28.996,0-52.5,23.505-52.5,52.5v84.329C724.867,174.457,681.32,127.94,628.486,92.9
		c-66.346-44.001-143.65-67.259-223.556-67.259c-54.644,0-107.679,10.713-157.634,31.843
		c-48.226,20.397-91.524,49.587-128.696,86.758C81.43,181.413,52.24,224.713,31.842,272.938C10.714,322.894,0,375.93,0,430.571
		c0,54.643,10.714,107.679,31.843,157.634C52.24,636.43,81.431,679.729,118.602,716.9c37.171,37.171,80.471,66.361,128.695,86.759
		c49.955,21.13,102.99,31.843,157.634,31.843c46.663,0,92.43-7.883,136.03-23.431c42.135-15.025,81.295-36.847,116.393-64.858
		c34.752-27.735,64.539-60.747,88.535-98.119c24.443-38.072,42.191-79.621,52.746-123.493c6.783-28.189-10.568-56.542-38.76-63.325
		c-28.193-6.783-56.543,10.571-63.326,38.762C681.08,565.328,643.9,623.609,591.855,665.145c-26,20.751-54.988,36.909-86.16,48.025
		c-32.25,11.5-66.152,17.331-100.764,17.331c-80.114,0-155.435-31.198-212.083-87.849C136.199,586.003,105,510.684,105,430.569
		c0-80.113,31.198-155.434,87.848-212.083s131.969-87.848,212.083-87.848c59.198,0,116.434,17.208,165.522,49.763
		c42.299,28.054,76.562,66.007,100.006,110.546h-58.025c-28.996,0-52.5,23.505-52.5,52.5c0,28.994,23.504,52.5,52.5,52.5h196.209
		c28.996,0,52.5-23.506,52.5-52.5V144.567C861.143,115.572,837.637,92.067,808.643,92.067z"/>
</g>
</svg>