<?xml version="1.0" encoding="utf-8"?>
<!-- Uploaded to: SVG Repo, www.svgrepo.com, Generator: SVG Repo Mixer Tools -->
<svg fill="none" width="100%" height="100%" viewBox="0 0 512 512" version="1.1" xmlns="http://www.w3.org/2000/svg">
    <g
            transform="translate(0.000000,512.000000) scale(0.100000,-0.100000)"
            fill="currentColor"
            stroke="none"
    >
        <path
                d="M2283 4546 c-29 -7 -83 -28 -120 -46 -63 -30 -136 -100 -1067 -1029
-570 -569 -1013 -1018 -1032 -1048 -71 -108 -81 -244 -28 -366 25 -57 77 -112
693 -730 366 -367 689 -683 716 -702 114 -75 254 -85 381 -26 66 30 115 78
1070 1034 859 859 1007 1011 1035 1065 30 55 37 62 59 59 14 -2 84 -17 155
-33 118 -25 149 -28 335 -28 167 -1 217 2 270 17 159 44 275 128 330 241 153
311 -166 731 -785 1035 -60 29 -150 69 -200 88 -49 19 -93 38 -98 42 -4 4 -12
34 -17 66 -30 184 -180 330 -365 354 -38 5 -342 12 -675 15 -485 4 -615 3
-657 -8z m897 -588 c121 -37 209 -152 218 -285 l5 -73 71 -45 c131 -84 471
-245 518 -245 8 0 9 60 4 225 -5 144 -4 225 3 225 23 0 328 -162 422 -225 186
-125 359 -318 361 -405 2 -65 -77 -99 -244 -107 -255 -13 -577 68 -893 223
-71 35 -172 91 -223 124 -51 33 -95 60 -97 60 -3 0 -25 -15 -49 -34 -65 -50
-134 -69 -220 -64 -195 13 -330 185 -295 375 14 74 37 119 91 173 85 85 207
114 328 78z"
        />
    </g>
</svg>